REM GENRE "Black Metal"
REM DATE 1993
REM DISCID 25054004
REM COMMENT "ExactAudioCopy v0.99pb5"
PERFORMER "Belphegor"
TITLE "Bloodbath In Paradise (Austria Belphegor CD1)"
FILE "Belphegor - Bloodbath In Paradise (Austria Belphegor CD1).flac" WAVE
  TRACK 01 AUDIO
    TITLE "Bloodbath In Paradise"
    PERFORMER "Belphegor"
    INDEX 01 00:00:00
  TRACK 02 AUDIO
    TITLE "Graves Of Sorrow"
    PERFORMER "Belphegor"
    INDEX 00 06:31:00
    INDEX 01 06:33:50
  TRACK 03 AUDIO
    TITLE "Schizoid Nightmare"
    PERFORMER "Belphegor"
    INDEX 00 12:16:00
    INDEX 01 12:18:50
  TRACK 04 AUDIO
    TITLE "Mutilated Corpses "
    PERFORMER "Belphegor"
    INDEX 00 17:27:00
    INDEX 01 17:29:50
